<svg width="207" height="57" viewBox="0 0 207 57" fill="none" xmlns="http://www.w3.org/2000/svg">
<path d="M12 14.5C12 12.567 13.567 11 15.5 11C17.433 11 19 12.567 19 14.5V48.5C19 50.433 17.433 52 15.5 52C13.567 52 12 50.433 12 48.5V14.5Z" fill="white"/>
<path d="M42 13.5C42 11.567 43.567 10 45.5 10C47.433 10 49 11.567 49 13.5V36.5C49 38.433 47.433 40 45.5 40C43.567 40 42 38.433 42 36.5V13.5Z" fill="white"/>
<path d="M27 13.5C27 11.567 28.567 10 30.5 10C32.433 10 34 11.567 34 13.5V41.5C34 43.433 32.433 45 30.5 45C28.567 45 27 43.433 27 41.5V13.5Z" fill="white"/>
<path d="M12 14.5C12 12.0147 14.0147 10 16.5 10H44.5C46.9853 10 49 12.0147 49 14.5C49 16.9853 46.9853 19 44.5 19H16.5C14.0147 19 12 16.9853 12 14.5Z" fill="white"/>
<path d="M74.304 45.576C71.648 45.576 69.184 45.144 66.912 44.28C64.672 43.416 62.72 42.2 61.056 40.632C59.424 39.064 58.144 37.224 57.216 35.112C56.32 33 55.872 30.696 55.872 28.2C55.872 25.704 56.32 23.4 57.216 21.288C58.144 19.176 59.44 17.336 61.104 15.768C62.768 14.2 64.72 12.984 66.96 12.12C69.2 11.256 71.632 10.824 74.256 10.824C76.912 10.824 79.344 11.256 81.552 12.12C83.792 12.984 85.728 14.2 87.36 15.768C89.024 17.336 90.32 19.176 91.248 21.288C92.176 23.368 92.64 25.672 92.64 28.2C92.64 30.696 92.176 33.016 91.248 35.16C90.32 37.272 89.024 39.112 87.36 40.68C85.728 42.216 83.792 43.416 81.552 44.28C79.344 45.144 76.928 45.576 74.304 45.576ZM74.256 38.952C75.76 38.952 77.136 38.696 78.384 38.184C79.664 37.672 80.784 36.936 81.744 35.976C82.704 35.016 83.44 33.88 83.952 32.568C84.496 31.256 84.768 29.8 84.768 28.2C84.768 26.6 84.496 25.144 83.952 23.832C83.44 22.52 82.704 21.384 81.744 20.424C80.816 19.464 79.712 18.728 78.432 18.216C77.152 17.704 75.76 17.448 74.256 17.448C72.752 17.448 71.36 17.704 70.08 18.216C68.832 18.728 67.728 19.464 66.768 20.424C65.808 21.384 65.056 22.52 64.512 23.832C64 25.144 63.744 26.6 63.744 28.2C63.744 29.768 64 31.224 64.512 32.568C65.056 33.88 65.792 35.016 66.72 35.976C67.68 36.936 68.8 37.672 70.08 38.184C71.36 38.696 72.752 38.952 74.256 38.952Z" fill="white"/>
<path d="M114.804 45.576C112.148 45.576 109.684 45.144 107.412 44.28C105.172 43.416 103.22 42.2 101.556 40.632C99.924 39.064 98.644 37.224 97.716 35.112C96.82 33 96.372 30.696 96.372 28.2C96.372 25.704 96.82 23.4 97.716 21.288C98.644 19.176 99.94 17.336 101.604 15.768C103.268 14.2 105.22 12.984 107.46 12.12C109.7 11.256 112.132 10.824 114.756 10.824C117.412 10.824 119.844 11.256 122.052 12.12C124.292 12.984 126.228 14.2 127.86 15.768C129.524 17.336 130.82 19.176 131.748 21.288C132.676 23.368 133.14 25.672 133.14 28.2C133.14 30.696 132.676 33.016 131.748 35.16C130.82 37.272 129.524 39.112 127.86 40.68C126.228 42.216 124.292 43.416 122.052 44.28C119.844 45.144 117.428 45.576 114.804 45.576ZM114.756 38.952C116.26 38.952 117.636 38.696 118.884 38.184C120.164 37.672 121.284 36.936 122.244 35.976C123.204 35.016 123.94 33.88 124.452 32.568C124.996 31.256 125.268 29.8 125.268 28.2C125.268 26.6 124.996 25.144 124.452 23.832C123.94 22.52 123.204 21.384 122.244 20.424C121.316 19.464 120.212 18.728 118.932 18.216C117.652 17.704 116.26 17.448 114.756 17.448C113.252 17.448 111.86 17.704 110.58 18.216C109.332 18.728 108.228 19.464 107.268 20.424C106.308 21.384 105.556 22.52 105.012 23.832C104.5 25.144 104.244 26.6 104.244 28.2C104.244 29.768 104.5 31.224 105.012 32.568C105.556 33.88 106.292 35.016 107.22 35.976C108.18 36.936 109.3 37.672 110.58 38.184C111.86 38.696 113.252 38.952 114.756 38.952Z" fill="white"/>
<path d="M150.024 45.576C147.336 45.576 144.76 45.224 142.296 44.52C139.832 43.784 137.848 42.84 136.344 41.688L138.984 35.832C140.424 36.856 142.12 37.704 144.072 38.376C146.056 39.016 148.056 39.336 150.072 39.336C151.608 39.336 152.84 39.192 153.768 38.904C154.728 38.584 155.432 38.152 155.88 37.608C156.328 37.064 156.552 36.44 156.552 35.736C156.552 34.84 156.2 34.136 155.496 33.624C154.792 33.08 153.864 32.648 152.712 32.328C151.56 31.976 150.28 31.656 148.872 31.368C147.496 31.048 146.104 30.664 144.696 30.216C143.32 29.768 142.056 29.192 140.904 28.488C139.752 27.784 138.808 26.856 138.072 25.704C137.368 24.552 137.016 23.08 137.016 21.288C137.016 19.368 137.528 17.624 138.552 16.056C139.608 14.456 141.176 13.192 143.256 12.264C145.368 11.304 148.008 10.824 151.176 10.824C153.288 10.824 155.368 11.08 157.416 11.592C159.464 12.072 161.272 12.808 162.84 13.8L160.44 19.704C158.872 18.808 157.304 18.152 155.736 17.736C154.168 17.288 152.632 17.064 151.128 17.064C149.624 17.064 148.392 17.24 147.432 17.592C146.472 17.944 145.784 18.408 145.368 18.984C144.952 19.528 144.744 20.168 144.744 20.904C144.744 21.768 145.096 22.472 145.8 23.016C146.504 23.528 147.432 23.944 148.584 24.264C149.736 24.584 151 24.904 152.376 25.224C153.784 25.544 155.176 25.912 156.552 26.328C157.96 26.744 159.24 27.304 160.392 28.008C161.544 28.712 162.472 29.64 163.176 30.792C163.912 31.944 164.28 33.4 164.28 35.16C164.28 37.048 163.752 38.776 162.696 40.344C161.64 41.912 160.056 43.176 157.944 44.136C155.864 45.096 153.224 45.576 150.024 45.576Z" fill="white"/>
<path d="M176.745 24.936H192.921V30.984H176.745V24.936ZM177.321 38.76H195.609V45H169.593V11.4H194.985V17.64H177.321V38.76Z" fill="white"/>
</svg>
